<?xml version="1.0" encoding="UTF-8"?>
<svg width="100px" height="100px" viewBox="0 0 100 100" version="1.1" xmlns="http://www.w3.org/2000/svg" xmlns:xlink="http://www.w3.org/1999/xlink">
    <!-- Generator: Sketch 52.2 (67145) - http://www.bohemiancoding.com/sketch -->
    <title>feature-video</title>
    <desc>Created with Sketch.</desc>
    <defs>
        <linearGradient x1="66.8104845%" y1="0%" x2="66.8104845%" y2="100%" id="linearGradient-1">
            <stop stop-color="#931FFF" offset="0%"></stop>
            <stop stop-color="#2D0DAE" offset="100%"></stop>
        </linearGradient>
    </defs>
    <g id="feature-video" stroke="none" stroke-width="1" fill="none" fill-rule="evenodd">
        <rect id="Rectangle" fill="#9524FF" opacity="0.25" transform="translate(17.000000, 50.000000) scale(-1, 1) translate(-17.000000, -50.000000) " x="9" y="11" width="16" height="78"></rect>
        <rect id="Rectangle-Copy" fill="#9524FF" opacity="0.25" transform="translate(83.000000, 50.000000) scale(-1, 1) translate(-83.000000, -50.000000) " x="75" y="11" width="16" height="78"></rect>
        <path d="M40.4243243,34.4 L62.1837838,49.1085714 C62.6324324,49.3314286 62.6324324,50 62.1837838,50.4457143 L40.4243243,65.1542857 C39.9756757,65.3771429 39.527027,65.1542857 39.527027,64.4857143 L39.527027,34.8457143 C39.3027027,34.4 39.9756757,33.9542857 40.4243243,34.4 Z" id="Path" stroke="url(#linearGradient-1)" stroke-width="5" fill-opacity="0.25" fill="#9524FF" stroke-linecap="round" stroke-linejoin="round"></path>
        <rect id="Rectangle" stroke="url(#linearGradient-1)" stroke-width="5" stroke-linecap="round" stroke-linejoin="round" x="9" y="11" width="16" height="78"></rect>
        <rect id="Rectangle-Copy-2" stroke="url(#linearGradient-1)" stroke-width="5" stroke-linecap="round" stroke-linejoin="round" x="75" y="11" width="16" height="78"></rect>
        <rect id="Rectangle-Copy-3" stroke="url(#linearGradient-1)" stroke-width="5" stroke-linecap="round" stroke-linejoin="round" x="25" y="11" width="50" height="78"></rect>
        <path d="M9,26.6 L24.7027027,26.6" id="Line-3" stroke="#7E1BEF" stroke-width="5"></path>
        <path d="M76,26.6 L91.7027027,26.6" id="Line-3-Copy-4" stroke="#7E1BEF" stroke-width="5"></path>
        <path d="M9,42.6 L24.7027027,42.6" id="Line-3-Copy" stroke="#6A18DF" stroke-width="5"></path>
        <path d="M76,42.6 L91.7027027,42.6" id="Line-3-Copy-5" stroke="#6A18DF" stroke-width="5"></path>
        <path d="M9,57.6 L24.7027027,57.6" id="Line-3-Copy-2" stroke="#5614CF" stroke-width="5"></path>
        <path d="M76,57.6 L91.7027027,57.6" id="Line-3-Copy-6" stroke="#5614CF" stroke-width="5"></path>
        <path d="M9,73.6 L24.7027027,73.6" id="Line-3-Copy-3" stroke="#4110BE" stroke-width="5"></path>
        <path d="M76,73.6 L91.7027027,73.6" id="Line-3-Copy-7" stroke="#4110BE" stroke-width="5"></path>
    </g>
</svg>