<?xml version="1.0" encoding="UTF-8"?>
<svg width="100px" height="100px" viewBox="0 0 100 100" version="1.1" xmlns="http://www.w3.org/2000/svg" xmlns:xlink="http://www.w3.org/1999/xlink">
    <!-- Generator: Sketch 52.2 (67145) - http://www.bohemiancoding.com/sketch -->
    <title>feature-measure</title>
    <desc>Created with Sketch.</desc>
    <defs>
        <linearGradient x1="66.8104845%" y1="0%" x2="66.8104845%" y2="100%" id="linearGradient-1">
            <stop stop-color="#931FFF" offset="0%"></stop>
            <stop stop-color="#2D0DAE" offset="100%"></stop>
        </linearGradient>
    </defs>
    <g id="feature-measure" stroke="none" stroke-width="1" fill="none" fill-rule="evenodd">
        <path d="M87.2508978,75.1712492 C79.9164286,83.6415959 69.0839755,89 57,89 C46.9888045,89 37.8366044,85.3222036 30.8208008,79.2440121 L30.8208008,65.8706055 L34.4633789,61.1479089 L35.925293,56 L35.925293,36.9450988 L33.4443359,30.4086914 L27.4462891,26.4770508 L23.9390519,26.4770508 C31.1408531,15.9261021 43.2615877,9 57,9 C57.661467,9 58.3191841,9.01605581 58.9727826,9.04779897 L56.9160156,9.04779908 L56.9160156,50.0957031 L87.2508978,75.1712492 Z" id="Combined-Shape" fill="#9524FF" opacity="0.25"></path>
        <path d="M94.5900862,51.3695652 L61.3343334,51.3695652 L86.4476651,72.4422687 C91.1525224,66.5926334 94.1312074,59.3038542 94.5900862,51.3695652 Z M94.6112169,47.4565037 C94.0813993,36.0910984 88.4494891,26.0499572 79.941612,19.5895548 L60.8040564,47.4565217 L94.6112177,47.4565217 Z M76.7051421,17.3901145 C71.4582818,14.2145904 65.3598772,12.2997398 58.8260955,12.0674035 L58.8260867,43.4245285 L76.7051421,17.3901145 Z M83.8387596,75.361252 L55.611933,51.6760018 C55.168906,51.3042559 54.9130433,50.7555546 54.9130433,50.1772226 L54.9130433,12.1337934 C46.876897,12.7001517 39.2466544,15.9089515 33.1211136,21.1594151 C32.3006934,21.8626323 31.0655413,21.7676206 30.362324,20.9472005 C29.6591068,20.1267804 29.7541185,18.8916282 30.5745386,18.188411 C38.0452383,11.7849541 47.5577372,8.13043478 57.4782609,8.13043478 C80.2102588,8.13043478 98.5652174,26.5489053 98.5652174,49.2173913 C98.5652174,71.8196876 80.0805571,90.3043478 57.4782609,90.3043478 C46.8033143,90.3043478 36.8798735,86.3349715 29.3305192,79.2050257 C28.5449399,78.4630898 28.5095601,77.2247941 29.251496,76.4392148 C29.993432,75.6536356 31.2317277,75.6182557 32.0173069,76.3601917 C38.842398,82.806111 47.8053814,86.3913043 57.4782609,86.3913043 C67.7536175,86.3913043 77.0918992,82.1631715 83.8387596,75.361252 Z" id="Combined-Shape" fill="url(#linearGradient-1)" fill-rule="nonzero"></path>
        <path d="M28.7373275,66.5457286 C28.3120389,65.7194893 28.5256918,64.6822918 29.2897715,64.0979955 C32.2588395,61.8275318 34,58.4345011 34,54.6956522 L34,37.0869565 C34,32.0290221 29.9121343,27.8913043 24.8043478,27.8913043 L18.5434783,27.8913043 C13.4855438,27.8913043 9.34782609,31.9791701 9.34782609,37.0869565 L9.34782609,54.6956522 C9.34782609,58.4345011 11.0889866,61.8275318 14.0580546,64.0979955 C14.7301009,64.6119133 14.9763325,65.4761993 14.7365216,66.2391453 C14.7947151,66.4244317 14.826087,66.6215957 14.826087,66.826087 L14.826087,89.7173913 C14.826087,91.1803124 15.9066441,92.2608696 17.3695652,92.2608696 C18.5216172,92.2608696 19.436543,91.5907535 19.7733628,90.5915015 C19.7364232,90.3061993 19.7173913,90.0144546 19.7173913,89.7173913 L19.7173913,68.7826087 C19.7173913,67.7020516 20.5933559,66.826087 21.673913,66.826087 C21.7067166,66.826087 21.7393315,66.8268943 21.7717391,66.8284901 C21.8041468,66.8268943 21.8367617,66.826087 21.8695652,66.826087 C22.9501223,66.826087 23.826087,67.7020516 23.826087,68.7826087 L23.826087,89.7173913 C23.826087,90.0144546 23.8070551,90.3061993 23.7701155,90.5915015 C24.1069352,91.5907535 25.0218611,92.2608696 26.173913,92.2608696 C27.6368342,92.2608696 28.7173913,91.1803124 28.7173913,89.7173913 L28.7173913,66.826087 C28.7173913,66.7308933 28.7241897,66.6372875 28.7373275,66.5457286 Z M32.5930336,66.443437 C32.6175694,66.5671854 32.6304348,66.6951338 32.6304348,66.826087 L32.6304348,89.7173913 C32.6304348,93.3414267 29.7979484,96.173913 26.173913,96.173913 C24.4562832,96.173913 22.9164616,95.537642 21.7717391,94.4823907 C20.6270166,95.537642 19.0871951,96.173913 17.3695652,96.173913 C13.7455298,96.173913 10.9130435,93.3414267 10.9130435,89.7173913 L10.9130435,66.826087 C10.9130435,66.7474612 10.9176814,66.6699187 10.9266985,66.5937181 C7.46412315,63.6088333 5.43478261,59.347536 5.43478261,54.6956522 L5.43478261,37.0869565 C5.43478261,31.4019591 9.03321239,26.601587 14.04301,24.7713288 C11.5260412,22.5831997 9.93478261,19.3578638 9.93478261,15.7608696 C9.93478261,9.16947114 15.2781668,3.82608696 21.8695652,3.82608696 C28.4609636,3.82608696 33.8043478,9.16947114 33.8043478,15.7608696 C33.8043478,19.4135752 32.1634157,22.6830206 29.5785059,24.8722512 C34.4732349,26.7840665 37.9130435,31.5494889 37.9130435,37.0869565 L37.9130435,54.6956522 C37.9130435,59.2700162 35.9507739,63.4667029 32.5930336,66.443437 Z M21.8695652,23.7826087 C26.2998494,23.7826087 29.8913043,20.1911538 29.8913043,15.7608696 C29.8913043,11.3305854 26.2998494,7.73913043 21.8695652,7.73913043 C17.439281,7.73913043 13.8478261,11.3305854 13.8478261,15.7608696 C13.8478261,20.1911538 17.439281,23.7826087 21.8695652,23.7826087 Z" id="Combined-Shape" fill="url(#linearGradient-1)" fill-rule="nonzero" opacity="0.900000036"></path>
    </g>
</svg>