<svg xmlns="http://www.w3.org/2000/svg" width="30" height="28" viewBox="0 0 30 28">
  <g id="Group_241" data-name="Group 241" transform="translate(-1396 -887)">
    <rect id="Rectangle_142" data-name="Rectangle 142" width="30" height="28" rx="5" transform="translate(1396 887)" fill="#db4437"/>
    <path id="Icon_ionic-logo-google" data-name="Icon ionic-logo-google" d="M18.26,9.715l-.076-.32H11.217v2.949h4.162A4.166,4.166,0,0,1,11.3,15.476a4.874,4.874,0,0,1-3.28-1.307,4.683,4.683,0,0,1-1.4-3.305A4.83,4.83,0,0,1,8,7.562a4.666,4.666,0,0,1,3.258-1.275,4.25,4.25,0,0,1,2.772,1.08l2.1-2.085a7.414,7.414,0,0,0-4.936-1.9h0a7.631,7.631,0,0,0-5.4,2.2,7.6,7.6,0,0,0-2.131,5.289A7.524,7.524,0,0,0,5.7,16.07a7.816,7.816,0,0,0,5.635,2.286A6.951,6.951,0,0,0,16.4,16.229a7.474,7.474,0,0,0,1.944-5.178A8.621,8.621,0,0,0,18.26,9.715Z" transform="translate(1400.344 890.618)" fill="#fff"/>
  </g>
</svg>
