<svg xmlns="http://www.w3.org/2000/svg" width="32.575" height="52.603" viewBox="0 0 32.575 52.603">
  <g id="icon_award" transform="translate(1.483 1.5)">
    <g id="Group_947" data-name="Group 947">
      <g id="Group_946" data-name="Group 946">
        <path id="Path_668" data-name="Path 668" d="M191.385,132.219c-.485,1.6-1.661,2.81-2.555,4.1-.923,1.333-1.673,2.87-2.926,3.822s-2.9,1.227-4.384,1.74c-1.467.506-2.933,1.313-4.513,1.329-1.525.015-3-.746-4.537-1.239s-3.155-.73-4.4-1.634c-1.292-.94-2.058-2.465-2.985-3.743-.94-1.3-2.134-2.484-2.64-4.015s-.269-3.219-.289-4.859c-.019-1.582-.31-3.273.174-4.865s1.661-2.811,2.555-4.1c.924-1.333,1.673-2.871,2.927-3.823s2.9-1.227,4.384-1.74c1.468-.506,2.934-1.314,4.514-1.329,1.525-.015,3,.746,4.538,1.239s3.155.731,4.4,1.635c1.293.94,2.058,2.465,2.985,3.744.94,1.3,2.134,2.485,2.64,4.015s.269,3.22.288,4.859C191.578,128.935,191.869,130.627,191.385,132.219Z" transform="translate(-162.054 -111.861)" fill="none" stroke="#34be82" stroke-miterlimit="10" stroke-width="3"/>
      </g>
      <path id="Path_669" data-name="Path 669" d="M210.36,267.668v20.885l-10.036-6.9-10.039,6.9V267.668" transform="translate(-185.532 -240.302)" fill="none" stroke="#34be82" stroke-miterlimit="10" stroke-width="3"/>
    </g>
    <ellipse id="Ellipse_521" data-name="Ellipse 521" cx="3.172" cy="3.265" rx="3.172" ry="3.265" transform="translate(11.633 12.429)" fill="none" stroke="#34be82" stroke-miterlimit="10" stroke-width="3"/>
  </g>
</svg>
