<svg xmlns="http://www.w3.org/2000/svg" width="39.004" height="48.045" viewBox="0 0 39.004 48.045">
  <g id="icon_onfire" transform="translate(1.504 1.545)">
    <path id="Path_670" data-name="Path 670" d="M184.69,142.087a.33.33,0,0,0-.6.221c.24,2.407.3,7.551-3.6,7.551-4.985,0-2.352-7.989-2.248-8.3,0-.007,0-.013.006-.021.074-.283,1.464-5.863-2.581-8.137a.329.329,0,0,0-.493.314c.274,2.66-.7,7.7-4.85,7.7-3.7,0-3.609-7.3-2.4-10.61a.329.329,0,0,0-.523-.359c-3.2,2.675-5.714,4.912-4.6,9.661,1.254,5.364,1.848,13.607-2.64,13.607-3.037,0-2.688-4.13-2.239-6.178a.329.329,0,0,0-.592-.257c-1.44,2.046-3.811,6.2-3.421,10.949h-.02c0,9.466,8.054,17.139,17.989,17.139s17.989-7.674,17.989-17.139A28.547,28.547,0,0,0,184.69,142.087Z" transform="translate(-153.871 -130.372)" fill="none" stroke="#34be82" stroke-miterlimit="10" stroke-width="3"/>
  </g>
</svg>
