<svg xmlns="http://www.w3.org/2000/svg" width="20" height="15" viewBox="0 0 20 15">
  <path id="Icon_zocial-email" data-name="Icon zocial-email" d="M.072,17.739V5.4q0-.021.058-.407L6.668,11.2.149,18.168a2,2,0,0,1-.077-.429ZM.94,4.132a.758.758,0,0,1,.328-.064H18.876a.994.994,0,0,1,.347.064l-6.557,6.236-.868.771L10.082,12.7,8.365,11.139,7.5,10.368ZM.959,19,7.536,12l2.546,2.293L12.627,12,19.2,19a.844.844,0,0,1-.328.064H1.268A.8.8,0,0,1,.959,19ZM13.5,11.2l6.519-6.214a1.41,1.41,0,0,1,.058.407V17.739a1.812,1.812,0,0,1-.058.429Z" transform="translate(-0.072 -4.068)" fill="#5e5873"/>
</svg>
