<svg width="60" height="60" viewBox="0 0 60 60" fill="none" xmlns="http://www.w3.org/2000/svg">
<rect width="60" height="60" fill="white"/>
<path d="M58.3028 54H9.69721C9.2988 54 9 53.6766 9 53.2453V22.9488L17.4661 14H58.3028C58.7012 14 59 14.3235 59 14.7547V53.2453C59 53.6766 58.7012 54 58.3028 54Z" fill="white" stroke="#A5A7AE" stroke-miterlimit="10"/>
<path d="M54.3028 50H5.69721C5.2988 50 5 49.6765 5 49.2453V18.9488L13.4661 10H54.3028C54.7012 10 55 10.3235 55 10.7547V49.2453C55 49.6765 54.7012 50 54.3028 50Z" fill="white" stroke="#A5A7AE" stroke-miterlimit="10"/>
<path d="M50.3028 46H1.69721C1.2988 46 1 45.6766 1 45.2453V18L14 6H50.3028C50.7012 6 51 6.32345 51 6.75472V45.2453C51 45.6766 50.7012 46 50.3028 46Z" fill="#EDEDED" stroke="#A5A7AE" stroke-miterlimit="10"/>
<path d="M32.4608 27.9054C32.493 28.0044 32.5553 28.0909 32.639 28.1528L35.9509 30.6022C35.961 30.6096 35.9713 30.6167 35.9819 30.6233C36.2319 30.7807 36.4486 30.9858 36.6194 31.2269L37.0274 30.9379L36.6194 31.2269C36.7902 31.468 36.9118 31.7404 36.9774 32.0285C37.0429 32.3167 37.051 32.6149 37.0013 32.9061C36.9516 33.1974 36.845 33.476 36.6876 33.7261L36.6871 33.727L36.2018 34.5015C36.2018 34.5016 36.2018 34.5016 36.2018 34.5016C36.0134 34.8008 35.7138 35.0129 35.3691 35.0913C35.0255 35.1694 34.6651 35.1084 34.3665 34.9216L19.4204 25.1516L19.4205 25.1515L19.4145 25.1477C19.1158 24.9584 18.9041 24.6586 18.8257 24.3137C18.7473 23.969 18.8084 23.6074 18.9957 23.3076C18.9958 23.3074 18.9959 23.3072 18.996 23.307L22.4951 17.7469C22.5757 17.6188 22.747 17.5292 22.9247 17.5301C23.0934 17.5308 23.1497 17.6011 23.1684 17.6654L23.1683 17.6654L23.1711 17.6747C23.4001 18.4115 23.7809 19.0921 24.2891 19.6727C24.7972 20.2532 25.4214 20.7208 26.1214 21.0453C26.13 21.0493 26.1386 21.053 26.1474 21.0564C27.4832 21.5862 28.9449 21.6944 30.3376 21.373L32.4608 27.9054Z" fill="white" stroke="#A5A7AE" stroke-miterlimit="10" stroke-linecap="round" stroke-linejoin="round"/>
<path d="M17.375 35.625H26.5417" stroke="#A5A7AE" stroke-miterlimit="10" stroke-linecap="square"/>
<path d="M17.375 31.0417H20.125" stroke="#A5A7AE" stroke-miterlimit="10" stroke-linecap="square"/>
<path d="M1 18H14V6L1 18Z" fill="#BFBFBF" stroke="#A5A7AE" stroke-miterlimit="10" stroke-linecap="round" stroke-linejoin="round"/>
</svg>
