<svg width="286" height="459" viewBox="0 0 286 459" fill="none" xmlns="http://www.w3.org/2000/svg">
<path d="M83.4998 7V6.5H82.9998H34.137C21.0837 6.5 10.5 17.0587 10.5 30.0858V458V458.5H2.5V30C2.5 13.7076 15.7076 0.5 32 0.5H254C270.292 0.5 283.5 13.7076 283.5 30V458.5H274.5V458V30.0858C274.5 17.0587 263.916 6.5 250.863 6.5H203H202.5V7V14.4936C202.5 19.956 198.062 24.386 192.584 24.386H93.4152C87.938 24.386 83.4998 19.956 83.4998 14.4936V7Z" fill="white" stroke="#F0F0F0"/>
<path d="M0 81C0 79.8954 0.895431 79 2 79V95C0.895431 95 0 94.1046 0 93V81Z" fill="#F0F0F0"/>
<path d="M0 114C0 112.895 0.895431 112 2 112V144C0.895431 144 0 143.105 0 142V114Z" fill="#F0F0F0"/>
<path d="M0 156C0 154.895 0.895431 154 2 154V187C0.895431 187 0 186.105 0 185V156Z" fill="#F0F0F0"/>
<path d="M284 71C285.105 71 286 71.8954 286 73V120C286 121.105 285.105 122 284 122V71Z" fill="#F0F0F0"/>
</svg>
